<mxfile host="app.diagrams.net" modified="2024-01-12T15:00:46.541Z" agent="Mozilla/5.0 (Windows NT 10.0; Win64; x64) AppleWebKit/537.36 (KHTML, like Gecko) Chrome/120.0.0.0 Safari/537.36" etag="FRFsZYCgBvsVj1onXkU8" version="22.1.18" type="device">
  <diagram id="C5RBs43oDa-KdzZeNtuy" name="Page-1">
    <mxGraphModel dx="1783" dy="1764" grid="1" gridSize="10" guides="1" tooltips="1" connect="1" arrows="1" fold="1" page="1" pageScale="1" pageWidth="827" pageHeight="1169" math="0" shadow="1">
      <root>
        <mxCell id="WIyWlLk6GJQsqaUBKTNV-0" />
        <mxCell id="WIyWlLk6GJQsqaUBKTNV-1" parent="WIyWlLk6GJQsqaUBKTNV-0" />
        <mxCell id="bv0VwQ17-_chknpVFKQK-2" style="edgeStyle=orthogonalEdgeStyle;rounded=0;orthogonalLoop=1;jettySize=auto;html=1;" parent="WIyWlLk6GJQsqaUBKTNV-1" source="bv0VwQ17-_chknpVFKQK-1" edge="1">
          <mxGeometry relative="1" as="geometry">
            <mxPoint x="400" y="170" as="targetPoint" />
          </mxGeometry>
        </mxCell>
        <mxCell id="bv0VwQ17-_chknpVFKQK-1" value="&lt;font style=&quot;font-size: 14px;&quot;&gt;&lt;b&gt;int a, b, c, d;&lt;/b&gt;&lt;/font&gt;" style="shape=parallelogram;perimeter=parallelogramPerimeter;whiteSpace=wrap;html=1;fixedSize=1;" parent="WIyWlLk6GJQsqaUBKTNV-1" vertex="1">
          <mxGeometry x="340" y="40" width="120" height="60" as="geometry" />
        </mxCell>
        <mxCell id="bv0VwQ17-_chknpVFKQK-4" style="edgeStyle=orthogonalEdgeStyle;rounded=0;orthogonalLoop=1;jettySize=auto;html=1;" parent="WIyWlLk6GJQsqaUBKTNV-1" source="bv0VwQ17-_chknpVFKQK-3" edge="1">
          <mxGeometry relative="1" as="geometry">
            <mxPoint x="-40" y="320" as="targetPoint" />
            <Array as="points">
              <mxPoint x="-40" y="200" />
            </Array>
          </mxGeometry>
        </mxCell>
        <mxCell id="ZbxUytv-zQAFxYc3TTp2-26" style="edgeStyle=orthogonalEdgeStyle;rounded=0;orthogonalLoop=1;jettySize=auto;html=1;" edge="1" parent="WIyWlLk6GJQsqaUBKTNV-1" source="bv0VwQ17-_chknpVFKQK-3">
          <mxGeometry relative="1" as="geometry">
            <mxPoint x="840" y="320" as="targetPoint" />
          </mxGeometry>
        </mxCell>
        <mxCell id="bv0VwQ17-_chknpVFKQK-3" value="&lt;font size=&quot;3&quot;&gt;&lt;b&gt;a&amp;gt;b&lt;/b&gt;&lt;/font&gt;" style="rhombus;whiteSpace=wrap;html=1;" parent="WIyWlLk6GJQsqaUBKTNV-1" vertex="1">
          <mxGeometry x="360" y="160" width="80" height="80" as="geometry" />
        </mxCell>
        <mxCell id="bv0VwQ17-_chknpVFKQK-5" value="&lt;b&gt;&lt;font style=&quot;font-size: 14px;&quot;&gt;if&lt;/font&gt;&lt;/b&gt;" style="text;html=1;align=center;verticalAlign=middle;resizable=0;points=[];autosize=1;strokeColor=none;fillColor=none;" parent="WIyWlLk6GJQsqaUBKTNV-1" vertex="1">
          <mxGeometry x="170" y="160" width="30" height="30" as="geometry" />
        </mxCell>
        <mxCell id="bv0VwQ17-_chknpVFKQK-14" value="&lt;b style=&quot;border-color: var(--border-color);&quot;&gt;&lt;font style=&quot;border-color: var(--border-color); font-size: 14px;&quot;&gt;else&lt;/font&gt;&lt;/b&gt;" style="text;html=1;align=center;verticalAlign=middle;resizable=0;points=[];autosize=1;strokeColor=none;fillColor=none;" parent="WIyWlLk6GJQsqaUBKTNV-1" vertex="1">
          <mxGeometry x="615" y="160" width="50" height="30" as="geometry" />
        </mxCell>
        <mxCell id="bv0VwQ17-_chknpVFKQK-20" style="edgeStyle=orthogonalEdgeStyle;rounded=0;orthogonalLoop=1;jettySize=auto;html=1;" parent="WIyWlLk6GJQsqaUBKTNV-1" source="bv0VwQ17-_chknpVFKQK-19" edge="1">
          <mxGeometry relative="1" as="geometry">
            <mxPoint x="-40" y="440" as="targetPoint" />
          </mxGeometry>
        </mxCell>
        <mxCell id="bv0VwQ17-_chknpVFKQK-21" style="edgeStyle=orthogonalEdgeStyle;rounded=0;orthogonalLoop=1;jettySize=auto;html=1;entryX=0.5;entryY=0;entryDx=0;entryDy=0;" parent="WIyWlLk6GJQsqaUBKTNV-1" source="bv0VwQ17-_chknpVFKQK-19" edge="1" target="ZbxUytv-zQAFxYc3TTp2-9">
          <mxGeometry relative="1" as="geometry">
            <mxPoint x="360" y="430" as="targetPoint" />
            <Array as="points">
              <mxPoint x="200" y="360" />
              <mxPoint x="200" y="440" />
            </Array>
          </mxGeometry>
        </mxCell>
        <mxCell id="ZbxUytv-zQAFxYc3TTp2-30" value="" style="edgeStyle=orthogonalEdgeStyle;rounded=0;orthogonalLoop=1;jettySize=auto;html=1;" edge="1" parent="WIyWlLk6GJQsqaUBKTNV-1" source="bv0VwQ17-_chknpVFKQK-19" target="ZbxUytv-zQAFxYc3TTp2-1">
          <mxGeometry relative="1" as="geometry">
            <mxPoint x="-120" y="370" as="sourcePoint" />
          </mxGeometry>
        </mxCell>
        <mxCell id="bv0VwQ17-_chknpVFKQK-22" value="&lt;b&gt;&lt;font style=&quot;font-size: 14px;&quot;&gt;if&lt;/font&gt;&lt;/b&gt;" style="text;html=1;align=center;verticalAlign=middle;resizable=0;points=[];autosize=1;strokeColor=none;fillColor=none;" parent="WIyWlLk6GJQsqaUBKTNV-1" vertex="1">
          <mxGeometry x="-180" y="320" width="30" height="30" as="geometry" />
        </mxCell>
        <mxCell id="bv0VwQ17-_chknpVFKQK-24" value="&lt;b style=&quot;border-color: var(--border-color);&quot;&gt;&lt;font style=&quot;border-color: var(--border-color); font-size: 14px;&quot;&gt;else&lt;/font&gt;&lt;/b&gt;" style="text;html=1;align=center;verticalAlign=middle;resizable=0;points=[];autosize=1;strokeColor=none;fillColor=none;" parent="WIyWlLk6GJQsqaUBKTNV-1" vertex="1">
          <mxGeometry x="70" y="320" width="50" height="30" as="geometry" />
        </mxCell>
        <mxCell id="ZbxUytv-zQAFxYc3TTp2-33" style="edgeStyle=orthogonalEdgeStyle;rounded=0;orthogonalLoop=1;jettySize=auto;html=1;entryX=0.549;entryY=-0.007;entryDx=0;entryDy=0;entryPerimeter=0;" edge="1" parent="WIyWlLk6GJQsqaUBKTNV-1" source="ZbxUytv-zQAFxYc3TTp2-1" target="ZbxUytv-zQAFxYc3TTp2-4">
          <mxGeometry relative="1" as="geometry">
            <mxPoint x="-560" y="600" as="targetPoint" />
            <Array as="points">
              <mxPoint x="-440" y="520" />
              <mxPoint x="-440" y="640" />
            </Array>
          </mxGeometry>
        </mxCell>
        <mxCell id="ZbxUytv-zQAFxYc3TTp2-34" style="edgeStyle=orthogonalEdgeStyle;rounded=0;orthogonalLoop=1;jettySize=auto;html=1;" edge="1" parent="WIyWlLk6GJQsqaUBKTNV-1" source="ZbxUytv-zQAFxYc3TTp2-1">
          <mxGeometry relative="1" as="geometry">
            <mxPoint x="-120" y="640" as="targetPoint" />
          </mxGeometry>
        </mxCell>
        <mxCell id="ZbxUytv-zQAFxYc3TTp2-1" value="&lt;font size=&quot;3&quot;&gt;&lt;b&gt;a&amp;gt;d&lt;/b&gt;&lt;/font&gt;" style="rhombus;whiteSpace=wrap;html=1;" vertex="1" parent="WIyWlLk6GJQsqaUBKTNV-1">
          <mxGeometry x="-320" y="480" width="80" height="80" as="geometry" />
        </mxCell>
        <mxCell id="ZbxUytv-zQAFxYc3TTp2-4" value="&lt;b&gt;&lt;font style=&quot;font-size: 14px;&quot;&gt;A IS MAX&lt;/font&gt;&lt;/b&gt;" style="shape=parallelogram;perimeter=parallelogramPerimeter;whiteSpace=wrap;html=1;fixedSize=1;" vertex="1" parent="WIyWlLk6GJQsqaUBKTNV-1">
          <mxGeometry x="-500" y="640" width="110" height="60" as="geometry" />
        </mxCell>
        <mxCell id="ZbxUytv-zQAFxYc3TTp2-6" value="&lt;b&gt;&lt;font style=&quot;font-size: 14px;&quot;&gt;D IS MAX&lt;/font&gt;&lt;/b&gt;" style="shape=parallelogram;perimeter=parallelogramPerimeter;whiteSpace=wrap;html=1;fixedSize=1;" vertex="1" parent="WIyWlLk6GJQsqaUBKTNV-1">
          <mxGeometry x="-180" y="640" width="110" height="60" as="geometry" />
        </mxCell>
        <mxCell id="ZbxUytv-zQAFxYc3TTp2-7" value="&lt;b&gt;&lt;font style=&quot;font-size: 14px;&quot;&gt;if&lt;/font&gt;&lt;/b&gt;" style="text;html=1;align=center;verticalAlign=middle;resizable=0;points=[];autosize=1;strokeColor=none;fillColor=none;" vertex="1" parent="WIyWlLk6GJQsqaUBKTNV-1">
          <mxGeometry x="-390" y="490" width="30" height="30" as="geometry" />
        </mxCell>
        <mxCell id="ZbxUytv-zQAFxYc3TTp2-8" value="&lt;b style=&quot;border-color: var(--border-color);&quot;&gt;&lt;font style=&quot;border-color: var(--border-color); font-size: 14px;&quot;&gt;else&lt;/font&gt;&lt;/b&gt;" style="text;html=1;align=center;verticalAlign=middle;resizable=0;points=[];autosize=1;strokeColor=none;fillColor=none;" vertex="1" parent="WIyWlLk6GJQsqaUBKTNV-1">
          <mxGeometry x="-220" y="490" width="50" height="30" as="geometry" />
        </mxCell>
        <mxCell id="ZbxUytv-zQAFxYc3TTp2-35" style="edgeStyle=orthogonalEdgeStyle;rounded=0;orthogonalLoop=1;jettySize=auto;html=1;" edge="1" parent="WIyWlLk6GJQsqaUBKTNV-1" source="ZbxUytv-zQAFxYc3TTp2-9">
          <mxGeometry relative="1" as="geometry">
            <mxPoint x="40" y="640" as="targetPoint" />
          </mxGeometry>
        </mxCell>
        <mxCell id="ZbxUytv-zQAFxYc3TTp2-36" style="edgeStyle=orthogonalEdgeStyle;rounded=0;orthogonalLoop=1;jettySize=auto;html=1;" edge="1" parent="WIyWlLk6GJQsqaUBKTNV-1" source="ZbxUytv-zQAFxYc3TTp2-9">
          <mxGeometry relative="1" as="geometry">
            <mxPoint x="360" y="640" as="targetPoint" />
          </mxGeometry>
        </mxCell>
        <mxCell id="ZbxUytv-zQAFxYc3TTp2-9" value="&lt;font size=&quot;3&quot;&gt;&lt;b&gt;c&amp;gt;d&lt;/b&gt;&lt;/font&gt;" style="rhombus;whiteSpace=wrap;html=1;" vertex="1" parent="WIyWlLk6GJQsqaUBKTNV-1">
          <mxGeometry x="160" y="480" width="80" height="80" as="geometry" />
        </mxCell>
        <mxCell id="ZbxUytv-zQAFxYc3TTp2-15" value="&lt;b&gt;&lt;font style=&quot;font-size: 14px;&quot;&gt;if&lt;/font&gt;&lt;/b&gt;" style="text;html=1;align=center;verticalAlign=middle;resizable=0;points=[];autosize=1;strokeColor=none;fillColor=none;" vertex="1" parent="WIyWlLk6GJQsqaUBKTNV-1">
          <mxGeometry x="100" y="490" width="30" height="30" as="geometry" />
        </mxCell>
        <mxCell id="ZbxUytv-zQAFxYc3TTp2-17" value="&lt;b style=&quot;border-color: var(--border-color);&quot;&gt;&lt;font style=&quot;border-color: var(--border-color); font-size: 14px;&quot;&gt;else&lt;/font&gt;&lt;/b&gt;" style="text;html=1;align=center;verticalAlign=middle;resizable=0;points=[];autosize=1;strokeColor=none;fillColor=none;" vertex="1" parent="WIyWlLk6GJQsqaUBKTNV-1">
          <mxGeometry x="270" y="490" width="50" height="30" as="geometry" />
        </mxCell>
        <mxCell id="ZbxUytv-zQAFxYc3TTp2-18" value="&lt;b&gt;&lt;font style=&quot;font-size: 14px;&quot;&gt;C IS MAX&lt;/font&gt;&lt;/b&gt;" style="shape=parallelogram;perimeter=parallelogramPerimeter;whiteSpace=wrap;html=1;fixedSize=1;" vertex="1" parent="WIyWlLk6GJQsqaUBKTNV-1">
          <mxGeometry x="-20" y="640" width="110" height="60" as="geometry" />
        </mxCell>
        <mxCell id="ZbxUytv-zQAFxYc3TTp2-19" value="&lt;b&gt;&lt;font style=&quot;font-size: 14px;&quot;&gt;D IS MAX&lt;/font&gt;&lt;/b&gt;" style="shape=parallelogram;perimeter=parallelogramPerimeter;whiteSpace=wrap;html=1;fixedSize=1;" vertex="1" parent="WIyWlLk6GJQsqaUBKTNV-1">
          <mxGeometry x="304" y="640" width="110" height="60" as="geometry" />
        </mxCell>
        <mxCell id="ZbxUytv-zQAFxYc3TTp2-21" style="edgeStyle=orthogonalEdgeStyle;rounded=0;orthogonalLoop=1;jettySize=auto;html=1;" edge="1" parent="WIyWlLk6GJQsqaUBKTNV-1">
          <mxGeometry relative="1" as="geometry">
            <mxPoint x="640" y="480" as="targetPoint" />
            <mxPoint x="880.0526315789471" y="359.5226315789473" as="sourcePoint" />
          </mxGeometry>
        </mxCell>
        <mxCell id="ZbxUytv-zQAFxYc3TTp2-37" style="edgeStyle=orthogonalEdgeStyle;rounded=0;orthogonalLoop=1;jettySize=auto;html=1;" edge="1" parent="WIyWlLk6GJQsqaUBKTNV-1" source="ZbxUytv-zQAFxYc3TTp2-20">
          <mxGeometry relative="1" as="geometry">
            <mxPoint x="1080" y="480" as="targetPoint" />
            <Array as="points">
              <mxPoint x="1080" y="360" />
            </Array>
          </mxGeometry>
        </mxCell>
        <mxCell id="ZbxUytv-zQAFxYc3TTp2-20" value="&lt;font size=&quot;3&quot;&gt;&lt;b&gt;b&amp;gt;c&lt;/b&gt;&lt;/font&gt;" style="rhombus;whiteSpace=wrap;html=1;" vertex="1" parent="WIyWlLk6GJQsqaUBKTNV-1">
          <mxGeometry x="800" y="320" width="80" height="80" as="geometry" />
        </mxCell>
        <mxCell id="ZbxUytv-zQAFxYc3TTp2-32" style="edgeStyle=orthogonalEdgeStyle;rounded=0;orthogonalLoop=1;jettySize=auto;html=1;" edge="1" parent="WIyWlLk6GJQsqaUBKTNV-1" source="bv0VwQ17-_chknpVFKQK-19">
          <mxGeometry relative="1" as="geometry">
            <mxPoint x="-280" y="480" as="targetPoint" />
          </mxGeometry>
        </mxCell>
        <mxCell id="bv0VwQ17-_chknpVFKQK-19" value="&lt;b style=&quot;border-color: var(--border-color); color: rgb(0, 0, 0); font-family: Helvetica; font-size: medium; font-style: normal; font-variant-ligatures: normal; font-variant-caps: normal; letter-spacing: normal; orphans: 2; text-align: center; text-indent: 0px; text-transform: none; widows: 2; word-spacing: 0px; -webkit-text-stroke-width: 0px; background-color: rgb(251, 251, 251); text-decoration-thickness: initial; text-decoration-style: initial; text-decoration-color: initial;&quot;&gt;a&amp;gt;c&lt;/b&gt;" style="rhombus;whiteSpace=wrap;html=1;" parent="WIyWlLk6GJQsqaUBKTNV-1" vertex="1">
          <mxGeometry x="-80" y="320" width="80" height="80" as="geometry" />
        </mxCell>
        <mxCell id="ZbxUytv-zQAFxYc3TTp2-39" style="edgeStyle=orthogonalEdgeStyle;rounded=0;orthogonalLoop=1;jettySize=auto;html=1;" edge="1" parent="WIyWlLk6GJQsqaUBKTNV-1" source="ZbxUytv-zQAFxYc3TTp2-38">
          <mxGeometry relative="1" as="geometry">
            <mxPoint x="480" y="640" as="targetPoint" />
            <Array as="points">
              <mxPoint x="480" y="520" />
              <mxPoint x="480" y="640" />
            </Array>
          </mxGeometry>
        </mxCell>
        <mxCell id="ZbxUytv-zQAFxYc3TTp2-41" style="edgeStyle=orthogonalEdgeStyle;rounded=0;orthogonalLoop=1;jettySize=auto;html=1;" edge="1" parent="WIyWlLk6GJQsqaUBKTNV-1" source="ZbxUytv-zQAFxYc3TTp2-38">
          <mxGeometry relative="1" as="geometry">
            <mxPoint x="800" y="640" as="targetPoint" />
          </mxGeometry>
        </mxCell>
        <mxCell id="ZbxUytv-zQAFxYc3TTp2-38" value="&lt;font size=&quot;3&quot;&gt;&lt;b&gt;b&amp;gt;d&lt;/b&gt;&lt;/font&gt;" style="rhombus;whiteSpace=wrap;html=1;" vertex="1" parent="WIyWlLk6GJQsqaUBKTNV-1">
          <mxGeometry x="600" y="480" width="80" height="80" as="geometry" />
        </mxCell>
        <mxCell id="ZbxUytv-zQAFxYc3TTp2-40" value="&lt;b&gt;&lt;font style=&quot;font-size: 14px;&quot;&gt;B IS MAX&lt;/font&gt;&lt;/b&gt;" style="shape=parallelogram;perimeter=parallelogramPerimeter;whiteSpace=wrap;html=1;fixedSize=1;" vertex="1" parent="WIyWlLk6GJQsqaUBKTNV-1">
          <mxGeometry x="430" y="640" width="110" height="60" as="geometry" />
        </mxCell>
        <mxCell id="ZbxUytv-zQAFxYc3TTp2-42" value="&lt;b&gt;&lt;font style=&quot;font-size: 14px;&quot;&gt;D IS MAX&lt;/font&gt;&lt;/b&gt;" style="shape=parallelogram;perimeter=parallelogramPerimeter;whiteSpace=wrap;html=1;fixedSize=1;" vertex="1" parent="WIyWlLk6GJQsqaUBKTNV-1">
          <mxGeometry x="740" y="640" width="110" height="60" as="geometry" />
        </mxCell>
        <mxCell id="ZbxUytv-zQAFxYc3TTp2-44" style="edgeStyle=orthogonalEdgeStyle;rounded=0;orthogonalLoop=1;jettySize=auto;html=1;" edge="1" parent="WIyWlLk6GJQsqaUBKTNV-1" source="ZbxUytv-zQAFxYc3TTp2-43">
          <mxGeometry relative="1" as="geometry">
            <mxPoint x="920" y="640" as="targetPoint" />
          </mxGeometry>
        </mxCell>
        <mxCell id="ZbxUytv-zQAFxYc3TTp2-46" style="edgeStyle=orthogonalEdgeStyle;rounded=0;orthogonalLoop=1;jettySize=auto;html=1;" edge="1" parent="WIyWlLk6GJQsqaUBKTNV-1" source="ZbxUytv-zQAFxYc3TTp2-43">
          <mxGeometry relative="1" as="geometry">
            <mxPoint x="1240" y="640" as="targetPoint" />
          </mxGeometry>
        </mxCell>
        <mxCell id="ZbxUytv-zQAFxYc3TTp2-43" value="&lt;font size=&quot;3&quot;&gt;&lt;b&gt;c&amp;gt;d&lt;/b&gt;&lt;/font&gt;" style="rhombus;whiteSpace=wrap;html=1;" vertex="1" parent="WIyWlLk6GJQsqaUBKTNV-1">
          <mxGeometry x="1040" y="480" width="80" height="80" as="geometry" />
        </mxCell>
        <mxCell id="ZbxUytv-zQAFxYc3TTp2-45" value="&lt;b&gt;&lt;font style=&quot;font-size: 14px;&quot;&gt;C IS MAX&lt;/font&gt;&lt;/b&gt;" style="shape=parallelogram;perimeter=parallelogramPerimeter;whiteSpace=wrap;html=1;fixedSize=1;" vertex="1" parent="WIyWlLk6GJQsqaUBKTNV-1">
          <mxGeometry x="870" y="640" width="110" height="60" as="geometry" />
        </mxCell>
        <mxCell id="ZbxUytv-zQAFxYc3TTp2-47" value="&lt;b&gt;&lt;font style=&quot;font-size: 14px;&quot;&gt;D IS MAX&lt;/font&gt;&lt;/b&gt;" style="shape=parallelogram;perimeter=parallelogramPerimeter;whiteSpace=wrap;html=1;fixedSize=1;" vertex="1" parent="WIyWlLk6GJQsqaUBKTNV-1">
          <mxGeometry x="1186" y="640" width="110" height="60" as="geometry" />
        </mxCell>
        <mxCell id="ZbxUytv-zQAFxYc3TTp2-48" value="&lt;b&gt;&lt;font style=&quot;font-size: 36px;&quot;&gt;MAXIMUM OF 4 NUMBERS&lt;/font&gt;&lt;/b&gt;" style="text;html=1;align=center;verticalAlign=middle;resizable=0;points=[];autosize=1;strokeColor=none;fillColor=none;" vertex="1" parent="WIyWlLk6GJQsqaUBKTNV-1">
          <mxGeometry x="160" y="-60" width="480" height="60" as="geometry" />
        </mxCell>
        <mxCell id="ZbxUytv-zQAFxYc3TTp2-49" value="&lt;b&gt;&lt;font style=&quot;font-size: 14px;&quot;&gt;if&lt;/font&gt;&lt;/b&gt;" style="text;html=1;align=center;verticalAlign=middle;resizable=0;points=[];autosize=1;strokeColor=none;fillColor=none;" vertex="1" parent="WIyWlLk6GJQsqaUBKTNV-1">
          <mxGeometry x="720" y="320" width="30" height="30" as="geometry" />
        </mxCell>
        <mxCell id="ZbxUytv-zQAFxYc3TTp2-50" value="&lt;b&gt;&lt;font style=&quot;font-size: 14px;&quot;&gt;if&lt;/font&gt;&lt;/b&gt;" style="text;html=1;align=center;verticalAlign=middle;resizable=0;points=[];autosize=1;strokeColor=none;fillColor=none;" vertex="1" parent="WIyWlLk6GJQsqaUBKTNV-1">
          <mxGeometry x="530" y="490" width="30" height="30" as="geometry" />
        </mxCell>
        <mxCell id="ZbxUytv-zQAFxYc3TTp2-51" value="&lt;b&gt;&lt;font style=&quot;font-size: 14px;&quot;&gt;if&lt;/font&gt;&lt;/b&gt;" style="text;html=1;align=center;verticalAlign=middle;resizable=0;points=[];autosize=1;strokeColor=none;fillColor=none;" vertex="1" parent="WIyWlLk6GJQsqaUBKTNV-1">
          <mxGeometry x="980" y="490" width="30" height="30" as="geometry" />
        </mxCell>
        <mxCell id="ZbxUytv-zQAFxYc3TTp2-52" value="&lt;b style=&quot;border-color: var(--border-color);&quot;&gt;&lt;font style=&quot;border-color: var(--border-color); font-size: 14px;&quot;&gt;else&lt;/font&gt;&lt;/b&gt;" style="text;html=1;align=center;verticalAlign=middle;resizable=0;points=[];autosize=1;strokeColor=none;fillColor=none;" vertex="1" parent="WIyWlLk6GJQsqaUBKTNV-1">
          <mxGeometry x="960" y="320" width="50" height="30" as="geometry" />
        </mxCell>
        <mxCell id="ZbxUytv-zQAFxYc3TTp2-53" value="&lt;b style=&quot;border-color: var(--border-color);&quot;&gt;&lt;font style=&quot;border-color: var(--border-color); font-size: 14px;&quot;&gt;else&lt;/font&gt;&lt;/b&gt;" style="text;html=1;align=center;verticalAlign=middle;resizable=0;points=[];autosize=1;strokeColor=none;fillColor=none;" vertex="1" parent="WIyWlLk6GJQsqaUBKTNV-1">
          <mxGeometry x="1160" y="490" width="50" height="30" as="geometry" />
        </mxCell>
        <mxCell id="ZbxUytv-zQAFxYc3TTp2-54" value="&lt;b style=&quot;border-color: var(--border-color);&quot;&gt;&lt;font style=&quot;border-color: var(--border-color); font-size: 14px;&quot;&gt;else&lt;/font&gt;&lt;/b&gt;" style="text;html=1;align=center;verticalAlign=middle;resizable=0;points=[];autosize=1;strokeColor=none;fillColor=none;" vertex="1" parent="WIyWlLk6GJQsqaUBKTNV-1">
          <mxGeometry x="710" y="490" width="50" height="30" as="geometry" />
        </mxCell>
      </root>
    </mxGraphModel>
  </diagram>
</mxfile>
